<svg width="24" height="25" viewBox="0 0 24 25" fill="none" xmlns="http://www.w3.org/2000/svg">
<path d="M9.5 3.125C11.2239 3.125 12.8772 3.83835 14.0962 5.10813C15.3152 6.37791 16 8.1001 16 9.89583C16 11.5729 15.41 13.1146 14.44 14.3021L14.71 14.5833H15.5L20.5 19.7917L19 21.3542L14 16.1458V15.3229L13.73 15.0417C12.5505 16.0904 11.0507 16.6666 9.5 16.6667C7.77609 16.6667 6.12279 15.9533 4.90381 14.6835C3.68482 13.4138 3 11.6916 3 9.89583C3 8.1001 3.68482 6.37791 4.90381 5.10813C6.12279 3.83835 7.77609 3.125 9.5 3.125ZM9.5 5.20833C7 5.20833 5 7.29167 5 9.89583C5 12.5 7 14.5833 9.5 14.5833C12 14.5833 14 12.5 14 9.89583C14 7.29167 12 5.20833 9.5 5.20833Z" fill="white"/>
</svg>

